<svg width="58" height="62" viewBox="0 0 58 62" fill="none" xmlns="http://www.w3.org/2000/svg">
<rect width="58" height="62" rx="10" fill="white"/>
<path d="M12.144 42V19.696H19.504C21.3173 19.696 22.7787 19.9627 23.888 20.496C24.9973 21.008 25.808 21.7547 26.32 22.736C26.8533 23.696 27.12 24.8373 27.12 26.16C27.12 28.208 26.5333 29.7973 25.36 30.928C24.208 32.0373 22.5547 32.656 20.4 32.784C19.9093 32.8053 19.408 32.816 18.896 32.816C18.384 32.816 17.9467 32.816 17.584 32.816H16.272V42H12.144ZM24.272 42L18.672 32.336L22.896 31.824L29.04 42H24.272ZM16.272 29.104H19.088C19.792 29.104 20.432 29.0293 21.008 28.88C21.6053 28.7093 22.0853 28.4213 22.448 28.016C22.8107 27.5893 22.992 26.992 22.992 26.224C22.992 25.4347 22.8107 24.8373 22.448 24.432C22.0853 24.0267 21.6053 23.76 21.008 23.632C20.432 23.4827 19.792 23.408 19.088 23.408H16.272V29.104Z" fill="#604CC3"/>
<path d="M31.6753 42V19.696H46.5873V23.408H35.8033V28.72H45.1793V32.4H35.8033V42H31.6753Z" fill="#8FD14F"/>
</svg>
